<?xml version="1.0" standalone="no"?>
<!DOCTYPE svg PUBLIC "-//W3C//DTD SVG 1.1//EN" "http://www.w3.org/Graphics/SVG/1.1/DTD/svg11.dtd" >
<svg xmlns="http://www.w3.org/2000/svg" xmlns:xlink="http://www.w3.org/1999/xlink" version="1.1">
<metadata>
Created by FontForge 20201107 at Sun Mar  7 19:53:34 2021
 By Jimmy Wärting
Copyright S a I I D 2017
"Papyrus Pixel(Rus, Eng.), which is based on "Papyrus(Rus Edition)
</metadata>
<defs>
<font id="Papyrus-PixelRUSENG" horiz-adv-x="819" >
  <font-face 
    font-family="Papyrus Pixel(RUS/ENG)"
    font-weight="400"
    font-stretch="normal"
    units-per-em="2048"
    panose-1="0 0 4 0 0 0 0 0 0 0"
    ascent="1638"
    descent="-410"
    x-height="819"
    cap-height="1501"
    bbox="-136 -546 1911 1911"
    underline-thickness="102"
    underline-position="153"
    unicode-range="U+0020-0451"
  />
<missing-glyph horiz-adv-x="1291" 
d="M1086 50l-509 681l-508 -681h1017zM50 69l508 681l-508 682v-1363v0zM1105 69v1363l-509 -682l509 -681v0zM577 770l509 681h-1017l508 -681v0zM0 0v1501h1155v-1501h-1155z" />
    <glyph glyph-name=".notdef" horiz-adv-x="1291" 
d="M1086 50l-509 681l-508 -681h1017zM50 69l508 681l-508 682v-1363v0zM1105 69v1363l-509 -682l509 -681v0zM577 770l509 681h-1017l508 -681v0zM0 0v1501h1155v-1501h-1155z" />
    <glyph glyph-name="space" unicode=" " horiz-adv-x="341" 
 />
    <glyph glyph-name="exclam" unicode="!" horiz-adv-x="409" 
d="M0 409v137h273v-137h-273zM0 682v683h273v-683h-273z" />
    <glyph glyph-name="quotedbl" unicode="&#x22;" horiz-adv-x="682" 
d="M0 819v409h546v-409h-546z" />
    <glyph glyph-name="dollar" unicode="$" horiz-adv-x="955" 
d="M136 409v137h-136v136h273v273h-137v137h137v136h409v-136h-136v-137h136v-136h137v-137h-137v-136h-136v-137h-410z" />
    <glyph glyph-name="percent" unicode="%" horiz-adv-x="1092" 
d="M682 546v136h-136v-136h136zM0 409v137h136v273h-136v409h682v-273h-136v-136h409v-273h-136v-137h-410v137h-136v-137h-273z" />
    <glyph glyph-name="ampersand" unicode="&#x26;" horiz-adv-x="1092" 
d="M546 546v136h-273v-136h273zM0 409v410h136v136h-136v137h136v136h546v-136h-409v-137h273v-136h136v136h273v-273h-136v-136h-137v-137h-682z" />
    <glyph glyph-name="quotesingle" unicode="'" horiz-adv-x="409" 
d="M0 819v409h273v-409h-273z" />
    <glyph glyph-name="parenleft" unicode="(" horiz-adv-x="682" 
d="M273 0v136h-137v273h-136v819h136v137h137v136h273v-136h-137v-137h-136v-819h136v-273h137v-136h-273z" />
    <glyph glyph-name="parenright" unicode=")" horiz-adv-x="682" 
d="M0 0v136h136v273h137v683h-137v273h-136v136h273v-136h136v-273h137v-683h-137v-273h-136v-136h-273z" />
    <glyph glyph-name="plus" unicode="+" horiz-adv-x="955" 
d="M273 409v273h-273v137h273v273h273v-273h273v-137h-273v-273h-273z" />
    <glyph glyph-name="comma" unicode="," horiz-adv-x="546" 
d="M0 0v136h136v137h-136v136h409v-273h-136v-136h-273z" />
    <glyph glyph-name="hyphen" unicode="-" 
d="M0 409v137h682v-137h-682z" />
    <glyph glyph-name="period" unicode="." horiz-adv-x="409" 
d="M0 273v136h273v-136h-273z" />
    <glyph glyph-name="slash" unicode="/" horiz-adv-x="1228" 
d="M0 136v137h136v136h137v137h136v136h137v137h136v136h137v273h273v-273h-137v-136h-136v-137h-137v-136h-136v-137h-137v-136h-136v-137h-273z" />
    <glyph glyph-name="zero" unicode="0" horiz-adv-x="1092" 
d="M682 409v546h-136v-136h-273v-410h409zM136 273v136h-136v546h409v137h410v-137h136v-546h-136v-136h-683z" />
    <glyph glyph-name="one" unicode="1" horiz-adv-x="546" 
d="M136 136v683h-136v136h136v137h273v-956h-273z" />
    <glyph glyph-name="two" unicode="2" horiz-adv-x="955" 
d="M0 273v136h136v273h137v273h-273v137h546v-410h-137v-273h410v-136h-819z" />
    <glyph glyph-name="three" unicode="3" 
d="M0 0v136h273v273h136v273h-136v-136h-273v136h136v273h-136v137h546v-137h-137v-136h137v-137h136v-273h-136v-273h-137v-136h-409z" />
    <glyph glyph-name="four" unicode="4" horiz-adv-x="1092" 
d="M409 273v273h-409v136h136v137h137v136h136v137h273v-410h273v-136h-273v-273h-273z" />
    <glyph glyph-name="five" unicode="5" 
d="M0 0v136h136v137h137v136h136v273h-409v273h136v137h546v-137h-409v-136h409v-410h-136v-136h-137v-137h-136v-136h-273z" />
    <glyph glyph-name="six" unicode="6" 
d="M409 409v137h-136v-137h136zM0 273v546h136v136h137v137h136v136h273v-136h-136v-137h-137v-136h-136v-137h409v-273h-136v-136h-546z" />
    <glyph glyph-name="seven" unicode="7" 
d="M0 136v273h136v273h137v137h136v136h-273v137h546v-273h-136v-137h-137v-273h-136v-273h-273z" />
    <glyph glyph-name="eight" unicode="8" 
d="M409 409v273h-136v-273h136zM409 819v136h-136v-136h136zM0 273v409h136v137h-136v136h136v137h546v-273h-136v-137h136v-273h-136v-136h-546z" />
    <glyph glyph-name="nine" unicode="9" horiz-adv-x="955" 
d="M546 682v137h-137v-137h137zM0 0v136h136v137h137v136h136v137h-136v136h-137v273h273v137h410v-546h-137v-137h-136v-136h-137v-137h-136v-136h-273z" />
    <glyph glyph-name="colon" unicode=":" horiz-adv-x="409" 
d="M0 273v136h273v-136h-273zM0 546v136h273v-136h-273z" />
    <glyph glyph-name="semicolon" unicode=";" horiz-adv-x="409" 
d="M-136 -136v272h136v137h273v-137h-137v-272h-272zM0 546v136h273v-136h-273z" />
    <glyph glyph-name="less" unicode="&#x3c;" horiz-adv-x="955" 
d="M546 273v136h-137v137h-273v136h-136v273h273v137h136v136h410v-136h-273v-137h-137v-136h-136v-137h273v-136h136v-137h137v-136h-273z" />
    <glyph glyph-name="equal" unicode="=" 
d="M0 682v137h682v-137h-682zM0 955v137h682v-137h-682z" />
    <glyph glyph-name="greater" unicode="&#x3e;" 
d="M0 409v137h273v136h136v137h-136v136h-137v137h-136v136h273v-136h136v-137h273v-273h-136v-136h-137v-137h-409z" />
    <glyph glyph-name="question" unicode="?" 
d="M273 409v137h273v-137h-273zM273 682v273h136v137h-136v-137h-273v137h136v136h546v-273h-136v-273h-273z" />
    <glyph glyph-name="at" unicode="@" horiz-adv-x="1365" 
d="M682 682v137h-136v-137h136zM955 955v137h-546v-137h546zM273 409v137h-137v136h-136v273h136v137h137v136h819v-136h136v-683h-955z" />
    <glyph glyph-name="A" unicode="A" horiz-adv-x="1774" 
d="M1092 546v136h-137v410h-136v-137h-137v-273h-136v-136h546zM0 0v273h136v136h137v273h136v273h137v273h136v137h137v136h273v-409h136v-410h137v-273h136v-273h137v-136h-273v136h-137v273h-819v-136h-136v-273h-273z" />
    <glyph glyph-name="B" unicode="B" horiz-adv-x="1638" 
d="M955 136v137h273v409h-136v137h-273v136h-410v-819h546zM546 1092v136h136v137h-409v-273h273zM273 0v136h-137v956h-136v409h955v-273h-136v-136h136v-137h273v-136h137v-137h136v-409h-136v-137h-273v-136h-819z" />
    <glyph glyph-name="C" unicode="C" horiz-adv-x="1638" 
d="M273 0v136h-137v137h-136v819h136v136h137v137h273v136h682v-136h-546v-137h-273v-136h-136v-819h136v-137h819v137h273v-137h-136v-136h-1092z" />
    <glyph glyph-name="D" unicode="D" horiz-adv-x="1638" 
d="M682 136v137h273v136h137v273h136v410h-136v136h-546v137h-137v-1229h273zM0 0v136h136v1229h-136v136h682v-136h546v-137h273v-546h-136v-273h-137v-136h-136v-137h-273v-136h-819z" />
    <glyph glyph-name="E" unicode="E" horiz-adv-x="1501" 
d="M273 0v136h-137v1365h-136v137h1228v-137h-819v-273h683v-136h-683v-956h956v-136h-1092z" />
    <glyph glyph-name="F" unicode="F" horiz-adv-x="1365" 
d="M136 0v1092h-136v273h1228v-137h-955v-136h136v-137h546v-136h-546v-819h-273z" />
    <glyph glyph-name="G" unicode="G" horiz-adv-x="1638" 
d="M273 0v136h-137v137h-136v819h136v136h137v137h273v136h682v-136h-546v-137h-273v-136h-136v-819h136v-137h819v137h-136v409h273v-409h136v-137h-136v-136h-1092z" />
    <glyph glyph-name="H" unicode="H" horiz-adv-x="1501" 
d="M0 0v1501h273v-409h819v409h273v-1501h-273v955h-819v-955h-273z" />
    <glyph glyph-name="I" unicode="I" horiz-adv-x="409" 
d="M0 0v1365h273v-1365h-273z" />
    <glyph glyph-name="J" unicode="J" horiz-adv-x="1228" 
d="M0 0v273h273v-137h273v137h273v1228h273v-1228h-137v-137h-273v-136h-682z" />
    <glyph glyph-name="K" unicode="K" horiz-adv-x="1365" 
d="M955 0v136h-273v137h-136v136h-137v137h-136v-410h-273v1365h273v-546h136v273h137v137h136v136h273v-136h-136v-137h-137v-273h-136v-136h-137v-137h137v-136h136v-137h137v-136h273v-137h136v-136h-273z" />
    <glyph glyph-name="L" unicode="L" horiz-adv-x="1228" 
d="M0 0v1501h273v-1365h819v-136h-1092z" />
    <glyph glyph-name="M" unicode="M" horiz-adv-x="1638" 
d="M1092 0v136h136v137h-136v273h-137v-273h-136v-137h-273v273h-137v273h-136v-546h-273v1229h409v-410h137v-273h136v-136h137v409h136v137h137v273h273v-1092h136v-137h-136v-136h-273z" />
    <glyph glyph-name="N" unicode="N" horiz-adv-x="1365" 
d="M0 0v1365h273v-273h136v-137h137v-273h136v-136h137v-137h136v956h273v-1365h-409v136h-137v273h-136v137h-137v136h-136v-682h-273z" />
    <glyph glyph-name="O" unicode="O" horiz-adv-x="1774" 
d="M955 136v137h273v273h137v546h-137v136h-136v137h-410v-137h-273v-273h-136v-546h136v-136h137v-137h409zM409 0v136h-136v137h-137v136h-136v546h136v273h137v137h273v136h682v-136h273v-137h137v-682h-137v-273h-136v-137h-273v-136h-683z" />
    <glyph glyph-name="P" unicode="P" horiz-adv-x="1092" 
d="M546 1092v136h136v137h-136v136h-273v-409h273zM0 0v1638h682v-137h273v-273h-136v-136h-137v-137h-409v-955h-273z" />
    <glyph glyph-name="Q" unicode="Q" horiz-adv-x="2048" 
d="M955 273v136h137v137h136v273h137v409h-137v137h-273v136h-273v-136h-273v-137h-136v-819h136v-136h546zM1092 0v136h-819v137h-137v136h-136v819h136v137h137v136h273v137h546v-137h273v-136h136v-137h137v-409h-137v-273h-136v-137h-137v-273h683v-136h-819z" />
    <glyph glyph-name="R" unicode="R" horiz-adv-x="1228" 
d="M546 955v137h136v136h-409v-273h273zM0 0v1365h955v-273h-136v-137h-137v-136h-136v-137h136v-136h137v-273h136v-137h137v-136h-273v136h-137v137h-136v273h-273v-546h-273z" />
    <glyph glyph-name="S" unicode="S" horiz-adv-x="1638" 
d="M136 0v136h-136v273h273v-273h819v137h136v409h-136v137h-683v136h-136v273h136v137h273v136h683v-136h-546v-137h-273v-273h819v-136h136v-546h-136v-137h-137v-136h-1092z" />
    <glyph glyph-name="T" unicode="T" horiz-adv-x="1365" 
d="M409 0v1092h-409v136h1228v-136h-546v-1092h-273z" />
    <glyph glyph-name="U" unicode="U" horiz-adv-x="1501" 
d="M136 0v273h-136v546h136v409h137v137h273v-137h-137v-409h-136v-546h136v-137h410v137h136v136h137v1092h273v-1501h-273v136h-137v-136h-819z" />
    <glyph glyph-name="V" unicode="V" horiz-adv-x="1365" 
d="M546 0v273h-137v409h-136v273h-137v273h-136v137h273v-137h136v-273h137v-273h136v137h137v273h136v273h273v-273h-136v-273h-137v-546h-136v-273h-273z" />
    <glyph glyph-name="W" unicode="W" horiz-adv-x="1774" 
d="M409 0v409h-136v410h-137v409h-136v137h273v-137h136v-409h137v136h136v273h137v273h273v-682h136v136h137v410h273v-410h-137v-546h-136v-273h-273v410h-137v273h-136v-273h-137v-546h-273z" />
    <glyph glyph-name="X" unicode="X" horiz-adv-x="1365" 
d="M0 0v136h136v137h137v273h273v136h-137v137h-136v273h-137v273h273v-273h137v-137h136v137h137v273h136v136h273v-136h-136v-273h-137v-137h-136v-409h136v-137h137v-136h136v-273h-273v136h-136v273h-273v-136h-137v-137h-136v-136h-273z" />
    <glyph glyph-name="Y" unicode="Y" horiz-adv-x="1501" 
d="M546 0v819h-137v136h-136v137h-137v273h-136v136h273v-136h136v-137h137v-273h273v137h136v273h137v136h273v-136h-137v-273h-136v-137h-137v-273h-136v-682h-273z" />
    <glyph glyph-name="Z" unicode="Z" horiz-adv-x="1228" 
d="M0 0v136h136v273h137v273h136v137h137v136h136v137h-546v136h-136v137h273v-137h819v-136h-137v-137h-136v-136h-137v-137h-136v-273h-137v-273h683v-136h-1092z" />
    <glyph glyph-name="bracketleft" unicode="[" horiz-adv-x="546" 
d="M0 0v1365h136v136h273v-136h-136v-1229h136v-136h-409z" />
    <glyph glyph-name="backslash" unicode="\" horiz-adv-x="1365" 
d="M955 0v136h-136v137h-137v136h-136v137h-137v136h-136v137h-137v136h-136v273h273v-273h136v-136h137v-137h136v-136h137v-137h136v-136h137v-137h136v-136h-273z" />
    <glyph glyph-name="bracketright" unicode="]" horiz-adv-x="546" 
d="M0 0v136h136v1229h-136v136h409v-1365h-136v-136h-273z" />
    <glyph glyph-name="asciicircum" unicode="^" horiz-adv-x="955" 
d="M0 955v273h136v137h137v136h273v-273h136v-136h137v-137h-273v137h-137v136h-136v-273h-273z" />
    <glyph glyph-name="underscore" unicode="_" horiz-adv-x="955" 
d="M0 -136v136h819v-136h-819z" />
    <glyph glyph-name="grave" unicode="`" horiz-adv-x="682" 
d="M136 955v137h-136v136h409v-136h137v-137h-410z" />
    <glyph glyph-name="a" unicode="a" 
d="M0 273v136h136v137h273v136h-273v137h546v-546h-682z" />
    <glyph glyph-name="b" unicode="b" horiz-adv-x="955" 
d="M546 409v273h-273v-273h273zM0 273v1228h273v-682h546v-410h-137v-136h-682z" />
    <glyph glyph-name="c" unicode="c" 
d="M136 273v136h-136v273h136v137h546v-137h-409v-273h409v-136h-546z" />
    <glyph glyph-name="d" unicode="d" horiz-adv-x="955" 
d="M546 409v273h-273v-273h273zM0 273v409h136v137h410v546h273v-1092h-819z" />
    <glyph glyph-name="e" unicode="e" 
d="M136 273v136h-136v273h136v137h410v-137h136v-136h-409v-137h409v-136h-546z" />
    <glyph glyph-name="f" unicode="f" 
d="M136 273v409h-136v137h136v546h137v136h409v-136h-273v-546h273v-137h-273v-409h-273z" />
    <glyph glyph-name="g" unicode="g" horiz-adv-x="1092" 
d="M682 0v136h-409v-136h409zM546 546v136h-137v-136h137zM136 -136v136h-136v136h136v683h683v-273h-137v-137h-273v-136h546v-273h-136v-136h-683z" />
    <glyph glyph-name="h" unicode="h" 
d="M0 273v1228h273v-682h409v-546h-273v409h-136v-409h-273z" />
    <glyph glyph-name="i" unicode="i" horiz-adv-x="409" 
d="M0 273v546h273v-546h-273zM0 1092v136h273v-136h-273z" />
    <glyph glyph-name="j" unicode="j" 
d="M0 -546v137h273v136h136v1092h273v-1092h-136v-136h-137v-137h-409zM409 1092v136h273v-136h-273z" />
    <glyph glyph-name="k" unicode="k" horiz-adv-x="955" 
d="M0 273v1228h273v-682h273v-137h-137v-273h410v-136h-819z" />
    <glyph glyph-name="l" unicode="l" horiz-adv-x="409" 
d="M0 273v1228h273v-1228h-273z" />
    <glyph glyph-name="m" unicode="m" horiz-adv-x="1228" 
d="M0 273v546h1092v-546h-273v409h-137v-409h-273v409h-136v-409h-273z" />
    <glyph glyph-name="n" unicode="n" 
d="M0 273v546h682v-546h-273v409h-136v-409h-273z" />
    <glyph glyph-name="o" unicode="o" horiz-adv-x="955" 
d="M546 409v273h-273v-273h273zM136 273v136h-136v273h136v137h546v-137h137v-273h-137v-136h-546z" />
    <glyph glyph-name="p" unicode="p" horiz-adv-x="955" 
d="M546 409v273h-273v-273h273zM0 -273v1092h682v-137h137v-273h-137v-136h-409v-546h-273z" />
    <glyph glyph-name="q" unicode="q" 
d="M409 409v273h-136v-273h136zM409 -273v546h-409v409h136v137h546v-1092h-273z" />
    <glyph glyph-name="r" unicode="r" horiz-adv-x="682" 
d="M0 273v546h546v-137h-273v-409h-273z" />
    <glyph glyph-name="s" unicode="s" 
d="M0 273v409h136v137h546v-137h-409v-136h409v-137h-136v-136h-546z" />
    <glyph glyph-name="t" unicode="t" 
d="M136 273v409h-136v137h136v273h273v-273h273v-137h-273v-273h137v-136h-410z" />
    <glyph glyph-name="u" unicode="u" 
d="M0 273v546h273v-410h136v410h273v-546h-682z" />
    <glyph glyph-name="v" unicode="v" 
d="M136 273v273h-136v273h273v-273h136v273h273v-273h-136v-137h-137v-136h-273z" />
    <glyph glyph-name="w" unicode="w" horiz-adv-x="1092" 
d="M136 273v273h-136v273h273v-273h136v273h546v-273h-136v-273h-273v136h-137v-136h-273z" />
    <glyph glyph-name="x" unicode="x" horiz-adv-x="955" 
d="M0 273v136h136v137h137v136h-137v137h546v-137h-136v-136h136v-137h137v-136h-273v136h-273v-136h-273z" />
    <glyph glyph-name="y" unicode="y" horiz-adv-x="955" 
d="M0 -273v137h409v136h137v273h-410v546h273v-273h137v273h273v-819h-137v-136h-136v-137h-546z" />
    <glyph glyph-name="z" unicode="z" 
d="M0 273v136h136v137h137v136h-137v137h546v-137h-136v-136h-137v-137h273v-136h-682z" />
    <glyph glyph-name="braceleft" unicode="{" horiz-adv-x="682" 
d="M273 0v136h-137v546h-136v137h136v682h410v-136h-137v-546h-136v-137h136v-546h137v-136h-273z" />
    <glyph glyph-name="bar" unicode="|" horiz-adv-x="409" 
d="M0 0v1501h273v-1501h-273z" />
    <glyph glyph-name="braceright" unicode="}" horiz-adv-x="682" 
d="M0 0v136h136v546h137v137h-137v546h-136v136h273v-136h136v-546h137v-137h-137v-546h-136v-136h-273z" />
    <glyph glyph-name="asciitilde" unicode="~" horiz-adv-x="1092" 
d="M0 546v136h136v137h410v-137h136v137h273v-137h-136v-136h-410v136h-136v-136h-273z" />
    <glyph glyph-name="sterling" unicode="&#xa3;" horiz-adv-x="955" 
d="M409 955v137h-136v-137h136zM0 409v683h136v136h546v-273h-136v-136h273v-137h-137v-136h-136v-137h-546z" />
    <glyph glyph-name="uni0401" unicode="&#x401;" horiz-adv-x="1501" 
d="M273 0v136h-137v1229h-136v136h1228v-136h-819v-273h683v-137h-683v-819h956v-136h-1092zM136 1638v273h273v-273h-273zM682 1638v273h273v-273h-273z" />
    <glyph glyph-name="uni0410" unicode="&#x410;" horiz-adv-x="1774" 
d="M1092 546v136h-137v410h-136v-137h-137v-273h-136v-136h546zM0 0v273h136v136h137v273h136v273h137v273h136v137h137v136h273v-409h136v-410h137v-273h136v-273h137v-136h-273v136h-137v273h-819v-136h-136v-273h-273z" />
    <glyph glyph-name="uni0411" unicode="&#x411;" horiz-adv-x="1638" 
d="M955 136v137h273v409h-136v137h-273v136h-410v-819h546zM273 0v136h-137v956h-136v409h955v-136h-682v-273h682v-137h273v-136h137v-137h136v-409h-136v-137h-273v-136h-819z" />
    <glyph glyph-name="uni0412" unicode="&#x412;" horiz-adv-x="1638" 
d="M955 136v137h273v409h-136v137h-273v136h-410v-819h546zM546 1092v136h136v137h-409v-273h273zM273 0v136h-137v956h-136v409h955v-273h-136v-136h136v-137h273v-136h137v-137h136v-409h-136v-137h-273v-136h-819z" />
    <glyph glyph-name="uni0413" unicode="&#x413;" horiz-adv-x="1638" 
d="M0 -136v1501h136v136h1365v-273h-273v137h-955v-1501h-273z" />
    <glyph glyph-name="uni0414" unicode="&#x414;" horiz-adv-x="1911" 
d="M1365 136v546h-137v683h-546v-137h-136v-1092h819zM0 -273v409h273v1092h-137v137h273v136h956v137h136v-819h137v-683h136v-272h-136v-137h-137v273h-1228v-136h-137v-137h-136z" />
    <glyph glyph-name="uni0415" unicode="&#x415;" horiz-adv-x="1501" 
d="M273 0v136h-137v1229h-136v136h1228v-136h-819v-273h683v-137h-683v-819h956v-136h-1092z" />
    <glyph glyph-name="uni0416" unicode="&#x416;" horiz-adv-x="1638" 
d="M0 0v273h136v136h137v137h136v273h-136v136h-137v137h-136v273h136v-137h137v-136h136v-137h137v410h273v-273h136v136h137v137h136v136h273v-136h-136v-273h-137v-137h-136v-136h-137v-273h273v-137h137v-136h136v-273h-273v136h-136v137h-137v-273h-273v409h-136v-136
h-137v-137h-136v-136h-273z" />
    <glyph glyph-name="uni0417" unicode="&#x417;" horiz-adv-x="1365" 
d="M0 1228v137h136v-137h-136zM273 0v136h-137v137h-136v136h273v-136h136v-137h410v137h136v409h-136v137h-546v136h273v137h136v273h-546v136h683v-136h136v-273h-136v-137h136v-136h137v-137h136v-409h-136v-137h-137v-136h-682z" />
    <glyph glyph-name="uni0418" unicode="&#x418;" horiz-adv-x="1365" 
d="M0 136v1365h273v-955h136v136h137v137h136v273h137v136h136v273h273v-1365h-273v683h-136v-137h-137v-136h-136v-273h-137v-137h-409z" />
    <glyph glyph-name="uni0419" unicode="&#x419;" horiz-adv-x="1365" 
d="M0 136v1365h273v-955h136v136h137v137h136v273h137v136h136v273h273v-1365h-273v683h-136v-137h-137v-136h-136v-273h-137v-137h-409zM409 1638v136h410v-136h-410zM273 1774v137h136v-137h-136zM819 1774v137h273v-137h-273z" />
    <glyph glyph-name="uni041A" unicode="&#x41a;" horiz-adv-x="1365" 
d="M955 0v136h-273v137h-136v136h-137v137h-136v-410h-273v1365h273v-546h136v273h137v137h136v136h273v-136h-136v-137h-137v-273h-136v-136h-137v-137h137v-136h136v-137h137v-136h273v-137h136v-136h-273z" />
    <glyph glyph-name="uni041B" unicode="&#x41b;" horiz-adv-x="1911" 
d="M0 -136v136h136v273h137v273h136v136h137v273h136v273h137v137h136v136h273v-409h137v-410h136v-273h137v-273h136v-272h-136v136h-137v136h-136v273h-137v273h-136v410h-137v-137h-136v-273h-137v-273h-136v-136h-137v-273h-136v-136h-273z" />
    <glyph glyph-name="uni041C" unicode="&#x41c;" horiz-adv-x="1638" 
d="M1092 0v136h136v137h-136v273h-137v-273h-136v-137h-273v273h-137v273h-136v-546h-273v1365h409v-409h137v-273h136v-137h137v410h136v136h137v273h273v-1228h136v-137h-136v-136h-273z" />
    <glyph glyph-name="uni041D" unicode="&#x41d;" horiz-adv-x="1501" 
d="M1228 0v136h-136v819h-819v-819h-273v1365h273v-409h819v409h273v-1501h-137z" />
    <glyph glyph-name="uni041E" unicode="&#x41e;" horiz-adv-x="1911" 
d="M409 0v136h-136v137h-137v136h-136v546h136v273h137v137h409v-137h-273v-273h-136v-546h136v-136h137v-137h409v137h410v273h136v546h-136v136h-137v137h-546v136h683v-136h273v-137h136v-682h-136v-273h-137v-137h-409v-136h-683z" />
    <glyph glyph-name="uni041F" unicode="&#x41f;" horiz-adv-x="1501" 
d="M1092 -136v1228h-137v273h-546v-1365h-273v1365h-136v136h1228v-273h137v-1228h-137v-136h-136z" />
    <glyph glyph-name="uni0420" unicode="&#x420;" horiz-adv-x="1092" 
d="M546 955v137h136v136h-136v137h-273v-410h273zM0 -136v1637h682v-136h273v-273h-136v-137h-137v-136h-409v-955h-273z" />
    <glyph glyph-name="uni0421" unicode="&#x421;" horiz-adv-x="1501" 
d="M273 0v136h-137v137h-136v819h136v136h137v137h273v136h682v-136h-546v-137h-273v-136h-136v-819h136v-137h683v137h273v-137h-137v-136h-955z" />
    <glyph glyph-name="uni0422" unicode="&#x422;" horiz-adv-x="1774" 
d="M682 -136v1501h-273v-137h-409v137h136v136h1502v-136h-683v-1365h-136v-136h-137z" />
    <glyph glyph-name="uni0423" unicode="&#x423;" horiz-adv-x="1365" 
d="M136 0v136h-136v273h136v-136h137v-137h546v137h136v273h-682v136h-137v137h-136v546h136v136h137v-682h136v-137h546v683h137v136h136v-1228h-136v-137h-137v-136h-819z" />
    <glyph glyph-name="uni0424" unicode="&#x424;" horiz-adv-x="1774" 
d="M682 273v955h-273v-273h-136v-546h136v-136h273zM1228 273v136h137v546h-137v273h-273v-955h273zM682 -273v273h-136v136h-410v273h-136v546h136v273h137v137h409v136h137v137h136v-137h137v-136h273v-137h136v-273h137v-546h-137v-136h-136v-137h-410v-272h-136v-137
h-137z" />
    <glyph glyph-name="uni0425" unicode="&#x425;" horiz-adv-x="1365" 
d="M0 -136v136h136v136h137v273h273v273h-137v137h-273v273h-136v273h273v-273h136v-137h273v137h137v273h136v136h273v-136h-136v-273h-137v-137h-136v-546h136v-136h137v-137h136v-272h-273v136h-136v273h-273v-137h-137v-136h-136v-136h-273z" />
    <glyph glyph-name="uni0426" unicode="&#x426;" horiz-adv-x="1501" 
d="M1092 -273v137h-273v136h-819v1501h273v-1365h682v1365h137v137h136v-1638h137v-273h-273z" />
    <glyph glyph-name="uni0427" unicode="&#x427;" horiz-adv-x="1228" 
d="M819 0v546h-683v136h-136v819h273v-682h136v-137h410v819h273v-1501h-273z" />
    <glyph glyph-name="uni0428" unicode="&#x428;" horiz-adv-x="1638" 
d="M136 0v136h-136v1365h273v-1365h409v1365h273v-1365h273v1229h137v136h136v-1501h-1365z" />
    <glyph glyph-name="uni0429" unicode="&#x429;" horiz-adv-x="1911" 
d="M1365 -136v136h-1229v136h-136v1365h273v-1365h409v1365h273v-1365h273v1229h137v136h136v-1365h137v-136h136v-136h-409z" />
    <glyph glyph-name="uni042A" unicode="&#x42a;" horiz-adv-x="1638" 
d="M1092 136v137h136v409h-136v137h-410v-683h410zM546 0v136h-137v1092h-136v-136h-273v273h136v136h546v-546h546v-136h137v-137h136v-409h-136v-137h-137v-136h-682z" />
    <glyph glyph-name="uni042B" unicode="&#x42b;" horiz-adv-x="1501" 
d="M682 136v137h137v409h-137v137h-409v-683h409zM136 0v136h-136v1365h273v-546h546v-136h136v-137h137v819h273v-1501h-273v273h-137v-137h-136v-136h-683z" />
    <glyph glyph-name="uni042C" unicode="&#x42c;" horiz-adv-x="1228" 
d="M682 136v137h137v409h-137v137h-409v-683h409zM136 0v136h-136v1365h273v-546h546v-136h136v-137h137v-409h-137v-137h-136v-136h-683z" />
    <glyph glyph-name="uni042D" unicode="&#x42d;" horiz-adv-x="1501" 
d="M136 0v136h-136v137h273v-137h546v137h136v136h137v273h-683v137h683v136h-137v137h-136v136h-410v-136h-409v136h273v137h682v-137h137v-136h136v-137h137v-546h-137v-136h-136v-137h-137v-136h-819z" />
    <glyph glyph-name="uni042E" unicode="&#x42e;" horiz-adv-x="2048" 
d="M1228 136v137h273v273h137v546h-137v136h-136v137h-273v-137h-273v-273h-137v-546h137v-136h136v-137h273zM819 0v136h-137v137h-136v136h-137v273h-136v-546h-273v1365h273v-546h273v273h136v137h273v136h546v-136h273v-137h137v-682h-137v-273h-136v-137h-137v-136
h-682z" />
    <glyph glyph-name="uni042F" unicode="&#x42f;" horiz-adv-x="1228" 
d="M819 955v273h-410v-136h137v-137h273zM0 0v136h136v137h137v273h136v136h137v137h-137v136h-136v137h-137v273h956v-1365h-273v546h-273v-273h-137v-137h-136v-136h-273z" />
    <glyph glyph-name="uni0430" unicode="&#x430;" 
d="M0 273v136h136v137h273v136h-273v137h546v-546h-682z" />
    <glyph glyph-name="uni0431" unicode="&#x431;" 
d="M0 273v546h682v-137h-136v-136h136v-273h-682z" />
    <glyph glyph-name="uni0432" unicode="&#x432;" 
d="M0 273v546h546v-273h136v-273h-682z" />
    <glyph glyph-name="uni0433" unicode="&#x433;" 
d="M0 273v546h682v-137h-273v-409h-409z" />
    <glyph glyph-name="uni0434" unicode="&#x434;" 
d="M0 273v273h136v273h410v-273h136v-273h-136v136h-410v-136h-136z" />
    <glyph glyph-name="uni0435" unicode="&#x435;" 
d="M136 273v136h-136v273h136v137h410v-137h136v-136h-409v-137h409v-136h-546z" />
    <glyph glyph-name="uni0436" unicode="&#x436;" 
d="M0 273v136h136v-136h-136zM546 273v136h136v-136h-136zM0 682v137h136v-137h-136zM273 273v136h-137v273h137v137h136v-137h137v-273h-137v-136h-136zM546 682v137h136v-137h-136z" />
    <glyph glyph-name="uni0437" unicode="&#x437;" 
d="M0 273v136h273v137h-137v136h-136v137h682v-137h-136v-136h136v-137h-136v-136h-546z" />
    <glyph glyph-name="uni0438" unicode="&#x438;" 
d="M0 273v546h136v-137h137v137h409v-546h-273v136h-136v-136h-273z" />
    <glyph glyph-name="uni0439" unicode="&#x439;" 
d="M0 273v546h136v-137h137v137h409v-546h-273v136h-136v-136h-273zM136 955v137h410v-137h-410z" />
    <glyph glyph-name="uni043A" unicode="&#x43a;" horiz-adv-x="682" 
d="M0 273v546h136v-137h273v-136h-136v-137h273v-136h-546z" />
    <glyph glyph-name="uni043B" unicode="&#x43b;" 
d="M0 273v136h136v273h137v137h273v-137h136v-409h-273v136h-136v-136h-273z" />
    <glyph glyph-name="uni043C" unicode="&#x43c;" 
d="M0 273v546h136v-137h137v-136h136v136h137v137h136v-546h-273v136h-136v-136h-273z" />
    <glyph glyph-name="uni043D" unicode="&#x43d;" 
d="M0 273v546h273v-273h136v273h273v-546h-273v136h-136v-136h-273z" />
    <glyph glyph-name="uni043E" unicode="&#x43e;" 
d="M409 409v273h-136v-273h136zM136 273v136h-136v273h136v137h410v-137h136v-273h-136v-136h-410z" />
    <glyph glyph-name="uni043F" unicode="&#x43f;" 
d="M0 273v546h682v-546h-273v409h-136v-409h-273z" />
    <glyph glyph-name="uni0440" unicode="&#x440;" 
d="M0 273v546h682v-273h-136v-137h-273v-136h-273z" />
    <glyph glyph-name="uni0441" unicode="&#x441;" 
d="M136 273v136h-136v273h136v137h546v-137h-409v-273h409v-136h-546z" />
    <glyph glyph-name="uni0442" unicode="&#x442;" 
d="M136 273v409h-136v137h682v-137h-273v-409h-273z" />
    <glyph glyph-name="uni0443" unicode="&#x443;" 
d="M0 273v136h409v137h-273v136h-136v137h273v-137h136v137h273v-410h-136v-136h-546z" />
    <glyph glyph-name="uni0444" unicode="&#x444;" horiz-adv-x="955" 
d="M273 273v136h-137v137h-136v136h136v137h546v-137h137v-136h-137v-137h-136v-136h-273z" />
    <glyph glyph-name="uni0445" unicode="&#x445;" horiz-adv-x="955" 
d="M0 273v136h136v137h137v136h-137v137h546v-137h-136v-136h136v-137h137v-136h-273v136h-273v-136h-273z" />
    <glyph glyph-name="uni0446" unicode="&#x446;" 
d="M409 136v137h-409v546h273v-410h136v410h137v-410h136v-273h-273z" />
    <glyph glyph-name="uni0447" unicode="&#x447;" 
d="M409 273v136h-273v137h-136v273h273v-137h136v137h273v-546h-273z" />
    <glyph glyph-name="uni0448" unicode="&#x448;" 
d="M0 273v546h136v-273h137v136h136v-136h137v273h136v-546h-682z" />
    <glyph glyph-name="uni0449" unicode="&#x449;" 
d="M546 136v137h-546v546h136v-273h137v136h136v-136h137v273h136v-683h-136z" />
    <glyph glyph-name="uni044A" unicode="&#x44a;" 
d="M136 273v409h-136v137h273v-137h136v-136h273v-273h-546z" />
    <glyph glyph-name="uni044B" unicode="&#x44b;" 
d="M0 273v546h136v-137h137v-136h273v273h136v-546h-682z" />
    <glyph glyph-name="uni044C" unicode="&#x44c;" horiz-adv-x="682" 
d="M0 273v546h136v-137h137v-136h273v-273h-546z" />
    <glyph glyph-name="uni044D" unicode="&#x44d;" horiz-adv-x="682" 
d="M0 273v136h273v137h-137v136h-136v137h546v-546h-546z" />
    <glyph glyph-name="uni044E" unicode="&#x44e;" 
d="M0 273v546h136v-137h137v137h273v-137h136v-273h-136v-136h-273v136h-137v-136h-136z" />
    <glyph glyph-name="uni044F" unicode="&#x44f;" 
d="M0 273v136h136v137h137v136h-137v137h546v-546h-136v136h-273v-136h-273z" />
    <glyph glyph-name="uni0451" unicode="&#x451;" 
d="M136 273v136h-136v273h136v137h410v-137h136v-136h-409v-137h409v-136h-546zM136 955v137h137v-137h-137zM409 955v137h137v-137h-137z" />
  </font>
</defs>
</svg>
